<svg width="641" height="608" viewBox="0 0 641 608" fill="none" xmlns="http://www.w3.org/2000/svg">
<rect x="2" y="2" width="637" height="604" rx="99" fill="black" stroke="white" stroke-width="4"/>
<path d="M59.5312 94.6562H45.5V133H36.6875V94.6562H22.8438V87.5H59.5312V94.6562ZM81.25 133.625C78.6458 133.625 76.2812 133.198 74.1562 132.344C72.0312 131.49 70.2083 130.323 68.6875 128.844C67.1667 127.385 65.9896 125.667 65.1562 123.688C64.3438 121.688 63.9375 119.552 63.9375 117.281V116.031C63.9375 113.448 64.3438 111.094 65.1562 108.969C65.9688 106.823 67.1042 104.979 68.5625 103.438C70.0208 101.896 71.75 100.698 73.75 99.8438C75.75 98.9896 77.9271 98.5625 80.2812 98.5625C82.7188 98.5625 84.8854 98.9688 86.7812 99.7812C88.6979 100.573 90.3229 101.698 91.6562 103.156C92.9688 104.615 93.9688 106.375 94.6562 108.438C95.3438 110.479 95.6875 112.74 95.6875 115.219V118.906H72.75V119C73.0417 120.354 73.4167 121.448 73.875 122.281C74.3333 123.094 74.9479 123.833 75.7188 124.5C76.5104 125.188 77.4167 125.719 78.4375 126.094C79.4583 126.469 80.5729 126.656 81.7812 126.656C83.4896 126.656 85.1458 126.333 86.75 125.688C88.3542 125.042 89.6562 124.073 90.6562 122.781L95 127.469C93.8958 129.031 92.1458 130.448 89.75 131.719C87.3542 132.99 84.5208 133.625 81.25 133.625ZM80.2188 105.594C79.2396 105.594 78.3438 105.771 77.5312 106.125C76.7188 106.458 76.0104 106.948 75.4062 107.594C74.7812 108.24 74.2604 109.01 73.8438 109.906C73.4271 110.802 73.1146 111.802 72.9062 112.906H87.1562V112.219C87.1562 111.302 86.9896 110.438 86.6562 109.625C86.3229 108.812 85.8646 108.104 85.2812 107.5C84.6979 106.917 83.9792 106.458 83.125 106.125C82.2917 105.771 81.3229 105.594 80.2188 105.594ZM118.75 109.75L126.188 99.1875H135.531L124.188 115.781L135.938 133H126.562L118.781 121.938L111.062 133H101.656L113.406 115.781L102.094 99.1875H111.438L118.75 109.75ZM157.656 90.9062V99.1875H170.281V105.594H157.656V120.125C157.656 121.354 157.792 122.385 158.062 123.219C158.354 124.031 158.76 124.677 159.281 125.156C159.802 125.656 160.427 126.01 161.156 126.219C161.906 126.427 162.74 126.531 163.656 126.531C164.323 126.531 165 126.5 165.688 126.438C166.396 126.375 167.073 126.292 167.719 126.188C168.344 126.104 168.927 126.01 169.469 125.906C170.031 125.802 170.51 125.698 170.906 125.594L171.75 131.562C171.146 131.917 170.438 132.229 169.625 132.5C168.812 132.75 167.948 132.958 167.031 133.125C166.115 133.292 165.156 133.417 164.156 133.5C163.177 133.604 162.208 133.656 161.25 133.656C159.396 133.656 157.708 133.417 156.188 132.938C154.688 132.438 153.406 131.667 152.344 130.625C151.26 129.604 150.427 128.302 149.844 126.719C149.26 125.115 148.969 123.198 148.969 120.969V105.594H141.25V99.1875H148.969V90.9062H157.656Z" fill="white"/>
<path d="M49.7031 190.539H39.1797V220H33.5781V190.539H23.125V185.875H49.7031V190.539ZM66.2969 220.469C64.4219 220.469 62.7031 220.156 61.1406 219.531C59.5938 218.906 58.2656 218.039 57.1562 216.93C56.0469 215.836 55.1875 214.547 54.5781 213.062C53.9844 211.562 53.6875 209.945 53.6875 208.211V207.25C53.6875 205.266 54 203.469 54.625 201.859C55.25 200.25 56.1094 198.875 57.2031 197.734C58.2969 196.594 59.5625 195.719 61 195.109C62.4531 194.484 64 194.172 65.6406 194.172C67.4688 194.172 69.0859 194.484 70.4922 195.109C71.8984 195.719 73.0781 196.57 74.0312 197.664C74.9844 198.773 75.7031 200.094 76.1875 201.625C76.6719 203.156 76.9141 204.828 76.9141 206.641V209.055H59.3359V209.172C59.5078 210.281 59.7734 211.211 60.1328 211.961C60.4922 212.711 60.9844 213.383 61.6094 213.977C62.2344 214.602 62.9688 215.086 63.8125 215.43C64.6719 215.773 65.6094 215.945 66.625 215.945C68.0156 215.945 69.3125 215.68 70.5156 215.148C71.7188 214.602 72.7109 213.828 73.4922 212.828L76.4922 215.734C75.6484 216.953 74.3516 218.047 72.6016 219.016C70.8672 219.984 68.7656 220.469 66.2969 220.469ZM65.6172 198.719C64.8203 198.719 64.0781 198.867 63.3906 199.164C62.7188 199.445 62.1172 199.852 61.5859 200.383C61.0547 200.93 60.6094 201.586 60.25 202.352C59.8906 203.117 59.625 203.984 59.4531 204.953H71.3828V204.578C71.3828 203.844 71.25 203.117 70.9844 202.398C70.7188 201.664 70.3438 201.023 69.8594 200.477C69.3906 199.945 68.7969 199.523 68.0781 199.211C67.375 198.883 66.5547 198.719 65.6172 198.719ZM94.4219 203.172L100.492 194.641H106.703L97.7969 207.133L106.984 220H100.797L94.4688 211.141L88.1641 220H81.9531L91.1406 207.133L82.2578 194.641H88.4219L94.4219 203.172ZM123.367 188.453V194.641H132.906V198.836H123.367V210.953C123.367 211.891 123.477 212.68 123.695 213.32C123.93 213.945 124.25 214.438 124.656 214.797C125.062 215.172 125.547 215.438 126.109 215.594C126.672 215.75 127.289 215.828 127.961 215.828C128.445 215.828 128.945 215.805 129.461 215.758C129.977 215.711 130.477 215.648 130.961 215.57C131.43 215.508 131.867 215.438 132.273 215.359C132.695 215.266 133.047 215.188 133.328 215.125L133.938 218.992C133.531 219.242 133.039 219.461 132.461 219.648C131.898 219.82 131.289 219.969 130.633 220.094C129.977 220.219 129.289 220.312 128.57 220.375C127.867 220.453 127.164 220.492 126.461 220.492C125.18 220.492 124 220.32 122.922 219.977C121.859 219.617 120.945 219.062 120.18 218.312C119.414 217.578 118.812 216.633 118.375 215.477C117.953 214.32 117.742 212.93 117.742 211.305V198.836H111.602V194.641H117.742V188.453H123.367Z" fill="white"/>
<path d="M45.0859 257.449H36.3164V282H31.6484V257.449H22.9375V253.562H45.0859V257.449ZM58.9141 282.391C57.3516 282.391 55.9193 282.13 54.6172 281.609C53.3281 281.089 52.2214 280.366 51.2969 279.441C50.3724 278.53 49.6562 277.456 49.1484 276.219C48.6536 274.969 48.4062 273.621 48.4062 272.176V271.375C48.4062 269.721 48.6667 268.224 49.1875 266.883C49.7083 265.542 50.4245 264.396 51.3359 263.445C52.2474 262.495 53.3021 261.766 54.5 261.258C55.7109 260.737 57 260.477 58.3672 260.477C59.8906 260.477 61.2383 260.737 62.4102 261.258C63.582 261.766 64.5651 262.475 65.3594 263.387C66.1536 264.311 66.7526 265.411 67.1562 266.688C67.5599 267.964 67.7617 269.357 67.7617 270.867V272.879H53.1133V272.977C53.2565 273.901 53.4779 274.676 53.7773 275.301C54.0768 275.926 54.487 276.486 55.0078 276.98C55.5286 277.501 56.1406 277.905 56.8438 278.191C57.5599 278.478 58.3411 278.621 59.1875 278.621C60.3464 278.621 61.4271 278.4 62.4297 277.957C63.4323 277.501 64.2591 276.857 64.9102 276.023L67.4102 278.445C66.707 279.461 65.6263 280.372 64.168 281.18C62.7227 281.987 60.9714 282.391 58.9141 282.391ZM58.3477 264.266C57.6836 264.266 57.0651 264.389 56.4922 264.637C55.9323 264.871 55.431 265.21 54.9883 265.652C54.5456 266.108 54.1745 266.655 53.875 267.293C53.5755 267.931 53.3542 268.654 53.2109 269.461H63.1523V269.148C63.1523 268.536 63.0417 267.931 62.8203 267.332C62.599 266.72 62.2865 266.186 61.8828 265.73C61.4922 265.288 60.9974 264.936 60.3984 264.676C59.8125 264.402 59.1289 264.266 58.3477 264.266ZM82.3516 267.977L87.4102 260.867H92.5859L85.1641 271.277L92.8203 282H87.6641L82.3906 274.617L77.1367 282H71.9609L79.6172 271.277L72.2148 260.867H77.3516L82.3516 267.977ZM106.473 255.711V260.867H114.422V264.363H106.473V274.461C106.473 275.242 106.564 275.9 106.746 276.434C106.941 276.954 107.208 277.365 107.547 277.664C107.885 277.977 108.289 278.198 108.758 278.328C109.227 278.458 109.741 278.523 110.301 278.523C110.704 278.523 111.121 278.504 111.551 278.465C111.98 278.426 112.397 278.374 112.801 278.309C113.191 278.257 113.556 278.198 113.895 278.133C114.246 278.055 114.539 277.99 114.773 277.938L115.281 281.16C114.943 281.368 114.533 281.551 114.051 281.707C113.582 281.85 113.074 281.974 112.527 282.078C111.98 282.182 111.408 282.26 110.809 282.312C110.223 282.378 109.637 282.41 109.051 282.41C107.983 282.41 107 282.267 106.102 281.98C105.216 281.681 104.454 281.219 103.816 280.594C103.178 279.982 102.677 279.194 102.312 278.23C101.961 277.267 101.785 276.108 101.785 274.754V264.363H96.668V260.867H101.785V255.711H106.473Z" fill="white"/>
<rect x="18" y="159" width="605" height="5" rx="2.5" fill="white"/>
<path d="M36 512.511L50.6405 497.42L68.4465 501.391L83.4826 510.923L107.62 501.391H121.073L142.44 522.043H162.62L176.074 506.554L191.506 501.391L205.75 482.328H219.599L237.405 501.391H254.816L282.118 528L323.27 522.043L344.241 510.923L372.335 493.845L386.184 482.328L400.429 469.222L419.026 461.676L441.185 439.436H463.739L507.265 400.912L553.165 385.026L605 333" stroke="white" stroke-width="10"/>
</svg>
