<svg width="633" height="600" viewBox="0 0 633 600" fill="none" xmlns="http://www.w3.org/2000/svg">
<rect width="633" height="600" fill="black"/>
<path d="M55.5312 90.6562H41.5V129H32.6875V90.6562H18.8438V83.5H55.5312V90.6562ZM77.25 129.625C74.6458 129.625 72.2812 129.198 70.1562 128.344C68.0312 127.49 66.2083 126.323 64.6875 124.844C63.1667 123.385 61.9896 121.667 61.1562 119.688C60.3438 117.688 59.9375 115.552 59.9375 113.281V112.031C59.9375 109.448 60.3438 107.094 61.1562 104.969C61.9688 102.823 63.1042 100.979 64.5625 99.4375C66.0208 97.8958 67.75 96.6979 69.75 95.8438C71.75 94.9896 73.9271 94.5625 76.2812 94.5625C78.7188 94.5625 80.8854 94.9688 82.7812 95.7812C84.6979 96.5729 86.3229 97.6979 87.6562 99.1562C88.9688 100.615 89.9688 102.375 90.6562 104.438C91.3438 106.479 91.6875 108.74 91.6875 111.219V114.906H68.75V115C69.0417 116.354 69.4167 117.448 69.875 118.281C70.3333 119.094 70.9479 119.833 71.7188 120.5C72.5104 121.188 73.4167 121.719 74.4375 122.094C75.4583 122.469 76.5729 122.656 77.7812 122.656C79.4896 122.656 81.1458 122.333 82.75 121.688C84.3542 121.042 85.6562 120.073 86.6562 118.781L91 123.469C89.8958 125.031 88.1458 126.448 85.75 127.719C83.3542 128.99 80.5208 129.625 77.25 129.625ZM76.2188 101.594C75.2396 101.594 74.3438 101.771 73.5312 102.125C72.7188 102.458 72.0104 102.948 71.4062 103.594C70.7812 104.24 70.2604 105.01 69.8438 105.906C69.4271 106.802 69.1146 107.802 68.9062 108.906H83.1562V108.219C83.1562 107.302 82.9896 106.438 82.6562 105.625C82.3229 104.812 81.8646 104.104 81.2812 103.5C80.6979 102.917 79.9792 102.458 79.125 102.125C78.2917 101.771 77.3229 101.594 76.2188 101.594ZM114.75 105.75L122.188 95.1875H131.531L120.188 111.781L131.938 129H122.562L114.781 117.938L107.062 129H97.6562L109.406 111.781L98.0938 95.1875H107.438L114.75 105.75ZM153.656 86.9062V95.1875H166.281V101.594H153.656V116.125C153.656 117.354 153.792 118.385 154.062 119.219C154.354 120.031 154.76 120.677 155.281 121.156C155.802 121.656 156.427 122.01 157.156 122.219C157.906 122.427 158.74 122.531 159.656 122.531C160.323 122.531 161 122.5 161.688 122.438C162.396 122.375 163.073 122.292 163.719 122.188C164.344 122.104 164.927 122.01 165.469 121.906C166.031 121.802 166.51 121.698 166.906 121.594L167.75 127.562C167.146 127.917 166.438 128.229 165.625 128.5C164.812 128.75 163.948 128.958 163.031 129.125C162.115 129.292 161.156 129.417 160.156 129.5C159.177 129.604 158.208 129.656 157.25 129.656C155.396 129.656 153.708 129.417 152.188 128.938C150.688 128.438 149.406 127.667 148.344 126.625C147.26 125.604 146.427 124.302 145.844 122.719C145.26 121.115 144.969 119.198 144.969 116.969V101.594H137.25V95.1875H144.969V86.9062H153.656Z" fill="white"/>
<path d="M45.7031 186.539H35.1797V216H29.5781V186.539H19.125V181.875H45.7031V186.539ZM62.2969 216.469C60.4219 216.469 58.7031 216.156 57.1406 215.531C55.5938 214.906 54.2656 214.039 53.1562 212.93C52.0469 211.836 51.1875 210.547 50.5781 209.062C49.9844 207.562 49.6875 205.945 49.6875 204.211V203.25C49.6875 201.266 50 199.469 50.625 197.859C51.25 196.25 52.1094 194.875 53.2031 193.734C54.2969 192.594 55.5625 191.719 57 191.109C58.4531 190.484 60 190.172 61.6406 190.172C63.4688 190.172 65.0859 190.484 66.4922 191.109C67.8984 191.719 69.0781 192.57 70.0312 193.664C70.9844 194.773 71.7031 196.094 72.1875 197.625C72.6719 199.156 72.9141 200.828 72.9141 202.641V205.055H55.3359V205.172C55.5078 206.281 55.7734 207.211 56.1328 207.961C56.4922 208.711 56.9844 209.383 57.6094 209.977C58.2344 210.602 58.9688 211.086 59.8125 211.43C60.6719 211.773 61.6094 211.945 62.625 211.945C64.0156 211.945 65.3125 211.68 66.5156 211.148C67.7188 210.602 68.7109 209.828 69.4922 208.828L72.4922 211.734C71.6484 212.953 70.3516 214.047 68.6016 215.016C66.8672 215.984 64.7656 216.469 62.2969 216.469ZM61.6172 194.719C60.8203 194.719 60.0781 194.867 59.3906 195.164C58.7188 195.445 58.1172 195.852 57.5859 196.383C57.0547 196.93 56.6094 197.586 56.25 198.352C55.8906 199.117 55.625 199.984 55.4531 200.953H67.3828V200.578C67.3828 199.844 67.25 199.117 66.9844 198.398C66.7188 197.664 66.3438 197.023 65.8594 196.477C65.3906 195.945 64.7969 195.523 64.0781 195.211C63.375 194.883 62.5547 194.719 61.6172 194.719ZM90.4219 199.172L96.4922 190.641H102.703L93.7969 203.133L102.984 216H96.7969L90.4688 207.141L84.1641 216H77.9531L87.1406 203.133L78.2578 190.641H84.4219L90.4219 199.172ZM119.367 184.453V190.641H128.906V194.836H119.367V206.953C119.367 207.891 119.477 208.68 119.695 209.32C119.93 209.945 120.25 210.438 120.656 210.797C121.062 211.172 121.547 211.438 122.109 211.594C122.672 211.75 123.289 211.828 123.961 211.828C124.445 211.828 124.945 211.805 125.461 211.758C125.977 211.711 126.477 211.648 126.961 211.57C127.43 211.508 127.867 211.438 128.273 211.359C128.695 211.266 129.047 211.188 129.328 211.125L129.938 214.992C129.531 215.242 129.039 215.461 128.461 215.648C127.898 215.82 127.289 215.969 126.633 216.094C125.977 216.219 125.289 216.312 124.57 216.375C123.867 216.453 123.164 216.492 122.461 216.492C121.18 216.492 120 216.32 118.922 215.977C117.859 215.617 116.945 215.062 116.18 214.312C115.414 213.578 114.812 212.633 114.375 211.477C113.953 210.32 113.742 208.93 113.742 207.305V194.836H107.602V190.641H113.742V184.453H119.367Z" fill="white"/>
<path d="M41.0859 253.449H32.3164V278H27.6484V253.449H18.9375V249.562H41.0859V253.449ZM54.9141 278.391C53.3516 278.391 51.9193 278.13 50.6172 277.609C49.3281 277.089 48.2214 276.366 47.2969 275.441C46.3724 274.53 45.6562 273.456 45.1484 272.219C44.6536 270.969 44.4062 269.621 44.4062 268.176V267.375C44.4062 265.721 44.6667 264.224 45.1875 262.883C45.7083 261.542 46.4245 260.396 47.3359 259.445C48.2474 258.495 49.3021 257.766 50.5 257.258C51.7109 256.737 53 256.477 54.3672 256.477C55.8906 256.477 57.2383 256.737 58.4102 257.258C59.582 257.766 60.5651 258.475 61.3594 259.387C62.1536 260.311 62.7526 261.411 63.1562 262.688C63.5599 263.964 63.7617 265.357 63.7617 266.867V268.879H49.1133V268.977C49.2565 269.901 49.4779 270.676 49.7773 271.301C50.0768 271.926 50.487 272.486 51.0078 272.98C51.5286 273.501 52.1406 273.905 52.8438 274.191C53.5599 274.478 54.3411 274.621 55.1875 274.621C56.3464 274.621 57.4271 274.4 58.4297 273.957C59.4323 273.501 60.2591 272.857 60.9102 272.023L63.4102 274.445C62.707 275.461 61.6263 276.372 60.168 277.18C58.7227 277.987 56.9714 278.391 54.9141 278.391ZM54.3477 260.266C53.6836 260.266 53.0651 260.389 52.4922 260.637C51.9323 260.871 51.431 261.21 50.9883 261.652C50.5456 262.108 50.1745 262.655 49.875 263.293C49.5755 263.931 49.3542 264.654 49.2109 265.461H59.1523V265.148C59.1523 264.536 59.0417 263.931 58.8203 263.332C58.599 262.72 58.2865 262.186 57.8828 261.73C57.4922 261.288 56.9974 260.936 56.3984 260.676C55.8125 260.402 55.1289 260.266 54.3477 260.266ZM78.3516 263.977L83.4102 256.867H88.5859L81.1641 267.277L88.8203 278H83.6641L78.3906 270.617L73.1367 278H67.9609L75.6172 267.277L68.2148 256.867H73.3516L78.3516 263.977ZM102.473 251.711V256.867H110.422V260.363H102.473V270.461C102.473 271.242 102.564 271.9 102.746 272.434C102.941 272.954 103.208 273.365 103.547 273.664C103.885 273.977 104.289 274.198 104.758 274.328C105.227 274.458 105.741 274.523 106.301 274.523C106.704 274.523 107.121 274.504 107.551 274.465C107.98 274.426 108.397 274.374 108.801 274.309C109.191 274.257 109.556 274.198 109.895 274.133C110.246 274.055 110.539 273.99 110.773 273.938L111.281 277.16C110.943 277.368 110.533 277.551 110.051 277.707C109.582 277.85 109.074 277.974 108.527 278.078C107.98 278.182 107.408 278.26 106.809 278.312C106.223 278.378 105.637 278.41 105.051 278.41C103.983 278.41 103 278.267 102.102 277.98C101.216 277.681 100.454 277.219 99.8164 276.594C99.1784 275.982 98.6771 275.194 98.3125 274.23C97.9609 273.267 97.7852 272.108 97.7852 270.754V260.363H92.668V256.867H97.7852V251.711H102.473Z" fill="white"/>
<rect x="14" y="155" width="605" height="5" rx="2.5" fill="white"/>
<path d="M32 508.511L46.6405 493.42L64.4465 497.391L79.4826 506.923L103.62 497.391H117.073L138.44 518.043H158.62L172.074 502.554L187.506 497.391L201.75 478.328H215.599L233.405 497.391H250.816L278.118 524L319.27 518.043L340.241 506.923L368.335 489.845L382.184 478.328L396.429 465.222L415.026 457.676L437.185 435.436H459.739L503.265 396.912L549.165 381.026L601 329" stroke="white" stroke-width="10"/>
</svg>
