<svg width="641" height="608" viewBox="0 0 641 608" fill="none" xmlns="http://www.w3.org/2000/svg">
<rect x="2" y="2" width="637" height="604" rx="99" fill="#110B11" stroke="white" stroke-width="4"/>
<path d="M36.592 128V91.648H22.256V83.2H61.296V91.648H46.96V128H36.592ZM79.7585 128.512C75.8332 128.512 72.3772 127.744 69.3905 126.208C66.4465 124.672 64.1638 122.581 62.5425 119.936C60.9212 117.248 60.1105 114.197 60.1105 110.784C60.1105 107.328 60.8998 104.277 62.4785 101.632C64.0998 98.944 66.2972 96.8533 69.0705 95.36C71.8438 93.824 74.9798 93.056 78.4785 93.056C81.8492 93.056 84.8785 93.7813 87.5665 95.232C90.2972 96.64 92.4518 98.688 94.0305 101.376C95.6092 104.021 96.3985 107.2 96.3985 110.912C96.3985 111.296 96.3772 111.744 96.3345 112.256C96.2918 112.725 96.2492 113.173 96.2065 113.6H68.2385V107.776H90.9585L87.1185 109.504C87.1185 107.712 86.7558 106.155 86.0305 104.832C85.3052 103.509 84.3025 102.485 83.0225 101.76C81.7425 100.992 80.2492 100.608 78.5425 100.608C76.8358 100.608 75.3212 100.992 73.9985 101.76C72.7185 102.485 71.7158 103.531 70.9905 104.896C70.2652 106.219 69.9025 107.797 69.9025 109.632V111.168C69.9025 113.045 70.3078 114.709 71.1185 116.16C71.9718 117.568 73.1452 118.656 74.6385 119.424C76.1745 120.149 77.9665 120.512 80.0145 120.512C81.8492 120.512 83.4492 120.235 84.8145 119.68C86.2225 119.125 87.5025 118.293 88.6545 117.184L93.9665 122.944C92.3878 124.736 90.4038 126.123 88.0145 127.104C85.6252 128.043 82.8732 128.512 79.7585 128.512ZM97.756 128L113.18 107.776L112.988 113.28L98.204 93.568H109.404L118.748 106.432L114.524 106.56L124.188 93.568H134.812L119.964 113.088V107.712L135.324 128H123.996L114.204 114.304L118.364 114.88L108.636 128H97.756ZM154.251 128.512C150.197 128.512 147.04 127.488 144.779 125.44C142.517 123.349 141.387 120.256 141.387 116.16V85.952H151.371V116.032C151.371 117.483 151.755 118.613 152.523 119.424C153.291 120.192 154.336 120.576 155.659 120.576C157.237 120.576 158.581 120.149 159.691 119.296L162.379 126.336C161.355 127.061 160.117 127.616 158.667 128C157.259 128.341 155.787 128.512 154.251 128.512ZM136.075 102.016V94.336H159.947V102.016H136.075Z" fill="#F2F4CB"/>
<path d="M33.712 217V187.576H22.192V183.4H49.984V187.576H38.464V217H33.712ZM63.2429 217.288C60.5229 217.288 58.1229 216.728 56.0429 215.608C53.9949 214.488 52.3949 212.952 51.2429 211C50.1229 209.048 49.5629 206.808 49.5629 204.28C49.5629 201.752 50.1069 199.512 51.1949 197.56C52.3149 195.608 53.8349 194.088 55.7549 193C57.7069 191.88 59.8989 191.32 62.3309 191.32C64.7949 191.32 66.9709 191.864 68.8589 192.952C70.7469 194.04 72.2189 195.576 73.2749 197.56C74.3629 199.512 74.9069 201.8 74.9069 204.424C74.9069 204.616 74.8909 204.84 74.8589 205.096C74.8589 205.352 74.8429 205.592 74.8109 205.816H53.1629V202.504H72.4109L70.5389 203.656C70.5709 202.024 70.2349 200.568 69.5309 199.288C68.8269 198.008 67.8509 197.016 66.6029 196.312C65.3869 195.576 63.9629 195.208 62.3309 195.208C60.7309 195.208 59.3069 195.576 58.0589 196.312C56.8109 197.016 55.8349 198.024 55.1309 199.336C54.4269 200.616 54.0749 202.088 54.0749 203.752V204.52C54.0749 206.216 54.4589 207.736 55.2269 209.08C56.0269 210.392 57.1309 211.416 58.5389 212.152C59.9469 212.888 61.5629 213.256 63.3869 213.256C64.8909 213.256 66.2509 213 67.4669 212.488C68.7149 211.976 69.8029 211.208 70.7309 210.184L73.2749 213.16C72.1229 214.504 70.6829 215.528 68.9549 216.232C67.2589 216.936 65.3549 217.288 63.2429 217.288ZM76.9064 217L87.8504 202.792L87.8024 205.144L77.3864 191.56H82.5224L90.4904 202.024H88.5224L96.4904 191.56H101.53L90.9704 205.24L91.0184 202.792L102.058 217H96.8264L88.4264 205.864L90.2984 206.152L82.0424 217H76.9064ZM115.823 217.288C113.263 217.288 111.279 216.6 109.871 215.224C108.463 213.848 107.759 211.88 107.759 209.32V185.992H112.367V209.128C112.367 210.504 112.703 211.56 113.375 212.296C114.079 213.032 115.071 213.4 116.351 213.4C117.791 213.4 118.991 213 119.951 212.2L121.391 215.512C120.687 216.12 119.839 216.568 118.847 216.856C117.887 217.144 116.879 217.288 115.823 217.288ZM103.439 195.352V191.56H119.663V195.352H103.439Z" fill="#F2F4CB"/>
<path d="M31.76 279V254.48H22.16V251H45.32V254.48H35.72V279H31.76ZM56.3691 279.24C54.1024 279.24 52.1024 278.773 50.3691 277.84C48.6624 276.907 47.3291 275.627 46.3691 274C45.4357 272.373 44.9691 270.507 44.9691 268.4C44.9691 266.293 45.4224 264.427 46.3291 262.8C47.2624 261.173 48.5291 259.907 50.1291 259C51.7557 258.067 53.5824 257.6 55.6091 257.6C57.6624 257.6 59.4757 258.053 61.0491 258.96C62.6224 259.867 63.8491 261.147 64.7291 262.8C65.6357 264.427 66.0891 266.333 66.0891 268.52C66.0891 268.68 66.0757 268.867 66.0491 269.08C66.0491 269.293 66.0357 269.493 66.0091 269.68H47.9691V266.92H64.0091L62.4491 267.88C62.4757 266.52 62.1957 265.307 61.6091 264.24C61.0224 263.173 60.2091 262.347 59.1691 261.76C58.1557 261.147 56.9691 260.84 55.6091 260.84C54.2757 260.84 53.0891 261.147 52.0491 261.76C51.0091 262.347 50.1957 263.187 49.6091 264.28C49.0224 265.347 48.7291 266.573 48.7291 267.96V268.6C48.7291 270.013 49.0491 271.28 49.6891 272.4C50.3557 273.493 51.2757 274.347 52.4491 274.96C53.6224 275.573 54.9691 275.88 56.4891 275.88C57.7424 275.88 58.8757 275.667 59.8891 275.24C60.9291 274.813 61.8357 274.173 62.6091 273.32L64.7291 275.8C63.7691 276.92 62.5691 277.773 61.1291 278.36C59.7157 278.947 58.1291 279.24 56.3691 279.24ZM67.7553 279L76.8753 267.16L76.8353 269.12L68.1553 257.8H72.4353L79.0753 266.52H77.4353L84.0753 257.8H88.2753L79.4753 269.2L79.5153 267.16L88.7153 279H84.3553L77.3553 269.72L78.9153 269.96L72.0353 279H67.7553ZM100.186 279.24C98.0523 279.24 96.399 278.667 95.2256 277.52C94.0523 276.373 93.4656 274.733 93.4656 272.6V253.16H97.3056V272.44C97.3056 273.587 97.5856 274.467 98.1456 275.08C98.7323 275.693 99.559 276 100.626 276C101.826 276 102.826 275.667 103.626 275L104.826 277.76C104.239 278.267 103.532 278.64 102.706 278.88C101.906 279.12 101.066 279.24 100.186 279.24ZM89.8656 260.96V257.8H103.386V260.96H89.8656Z" fill="#F2F4CB"/>
<rect x="18" y="159" width="605" height="5" rx="2.5" fill="#F2F4CB"/>
<path d="M36 512.511L50.6405 497.42L68.4465 501.391L83.4826 510.923L107.62 501.391H121.073L142.44 522.043H162.62L176.074 506.554L191.506 501.391L205.75 482.328H219.599L237.405 501.391H254.816L282.118 528L323.27 522.043L344.241 510.923L372.335 493.845L386.184 482.328L400.429 469.222L419.026 461.676L441.185 439.436H463.739L507.265 400.912L553.165 385.026L605 333" stroke="#F2F4CB" stroke-width="10"/>
</svg>
