<svg width="633" height="600" viewBox="0 0 633 600" fill="none" xmlns="http://www.w3.org/2000/svg">
<rect width="633" height="600" fill="#6E675F"/>
<path d="M54.875 83.8438V72.9062H47.5625V104H54.5938V112H28.1875V104H35.3438V72.9062H28.1875V83.8438H20.1875V64.9062H62.8125V83.8438H54.875ZM98.0625 97.7812H73.5625C73.8125 100.302 74.6771 102.302 76.1562 103.781C77.6562 105.24 79.5833 105.969 81.9375 105.969C84.5417 105.969 87.0833 104.677 89.5625 102.094L97.6875 104.719C95.8958 107.406 93.6771 109.427 91.0312 110.781C88.3854 112.115 85.25 112.781 81.625 112.781C78 112.781 74.7917 112.104 72 110.75C69.2292 109.375 67.0729 107.438 65.5312 104.938C64.0104 102.438 63.25 99.5 63.25 96.125C63.25 92.7917 64.0417 89.7708 65.625 87.0625C67.2292 84.3542 69.3854 82.2396 72.0938 80.7188C74.8229 79.1771 77.7812 78.4062 80.9688 78.4062C84.4271 78.4062 87.4375 79.2083 90 80.8125C92.5625 82.3958 94.5312 84.6562 95.9062 87.5938C97.3021 90.5104 98.0208 93.9062 98.0625 97.7812ZM80.4688 85.375C78.5938 85.375 77.0833 85.9167 75.9375 87C74.8125 88.0833 74.1042 89.7396 73.8125 91.9688H87.5C87.2083 90.0104 86.4062 88.4271 85.0938 87.2188C83.8021 85.9896 82.2604 85.375 80.4688 85.375ZM125.031 79.1562H134.969V86.8438H130.562L123.969 94.6562L131.625 104.438H136.125V112H123.5L117.188 102.781L110.312 112H100.094V104.438H104.875L112 96L104.875 86.8438H100.094V79.1562H112.75L118.656 88.1875L125.031 79.1562ZM159.969 79.1562V86.8438H153.906V101.188C153.906 102.208 154.104 102.979 154.5 103.5C154.896 104 155.635 104.25 156.719 104.25C157.615 104.25 158.698 104.021 159.969 103.562V110.844C157.156 111.948 154.51 112.5 152.031 112.5C149.177 112.5 147.031 111.781 145.594 110.344C144.177 108.885 143.469 106.833 143.469 104.188V86.8438H139.312V79.1562H143.469V74.0625L153.906 66.5625V79.1562H159.969Z" fill="#EDEBD7"/>
<path d="M43.8281 181.594V173.086H36.5391V199.594H41.1328V204H26.6953V199.594H31.1953V173.086H23.9531V181.594H19.5938V168.68H48.1875V181.594H43.8281ZM75.1875 192.914H54.5391C54.8359 195.273 55.75 197.141 57.2812 198.516C58.8125 199.875 60.6875 200.555 62.9062 200.555C64.5312 200.555 66.0391 200.219 67.4297 199.547C68.8203 198.875 69.9844 197.844 70.9219 196.453L75.1875 198.375C73.8438 200.469 72.0781 202.055 69.8906 203.133C67.7188 204.195 65.3516 204.727 62.7891 204.727C60.1328 204.727 57.7734 204.172 55.7109 203.062C53.6484 201.953 52.0391 200.406 50.8828 198.422C49.7422 196.438 49.1719 194.203 49.1719 191.719C49.1719 189.25 49.7344 187.023 50.8594 185.039C52 183.055 53.5547 181.508 55.5234 180.398C57.4922 179.273 59.6641 178.711 62.0391 178.711C64.6328 178.711 66.8906 179.289 68.8125 180.445C70.75 181.586 72.2734 183.227 73.3828 185.367C74.4922 187.492 75.0938 190.008 75.1875 192.914ZM62.1328 182.742C60.3047 182.742 58.7031 183.359 57.3281 184.594C55.9531 185.812 55.0703 187.43 54.6797 189.445H70.1016C69.6484 187.43 68.6875 185.812 67.2188 184.594C65.75 183.359 64.0547 182.742 62.1328 182.742ZM87 183.703L91.4531 188.555L95.6016 183.703H93.0938V179.367H104.719V183.703H100.641L94.1484 191.086L101.977 199.688H104.719V204H93.0938V199.688H96.2578L91.3594 194.109L86.5312 199.688H89.6953V204H77.7891V199.688H81.375L88.7812 191.367L81.7734 183.703H78.3984V179.367H89.9766V183.703H87ZM119.625 179.367V183.703H115.125V196.617C115.125 197.961 115.266 198.836 115.547 199.242C115.844 199.633 116.344 199.828 117.047 199.828C117.906 199.828 118.766 199.68 119.625 199.383V203.766C118.125 204.203 116.914 204.422 115.992 204.422C113.961 204.422 112.5 203.914 111.609 202.898C110.719 201.867 110.273 200.109 110.273 197.625V183.703H107.062V179.367H110.273V175.641L115.125 171.211V179.367H119.625Z" fill="#EDEBD7"/>
<path d="M39.5234 248.328V241.238H33.4492V263.328H37.2773V267H25.2461V263.328H28.9961V241.238H22.9609V248.328H19.3281V237.566H43.1562V248.328H39.5234ZM65.6562 257.762H48.4492C48.6966 259.728 49.4583 261.284 50.7344 262.43C52.0104 263.562 53.5729 264.129 55.4219 264.129C56.776 264.129 58.0326 263.849 59.1914 263.289C60.3503 262.729 61.3203 261.87 62.1016 260.711L65.6562 262.312C64.5365 264.057 63.0651 265.379 61.2422 266.277C59.4323 267.163 57.4596 267.605 55.3242 267.605C53.1107 267.605 51.1445 267.143 49.4258 266.219C47.707 265.294 46.3659 264.005 45.4023 262.352C44.4518 260.698 43.9766 258.836 43.9766 256.766C43.9766 254.708 44.4453 252.853 45.3828 251.199C46.3333 249.546 47.6289 248.257 49.2695 247.332C50.9102 246.395 52.7201 245.926 54.6992 245.926C56.8607 245.926 58.7422 246.408 60.3438 247.371C61.9583 248.322 63.2279 249.689 64.1523 251.473C65.0768 253.243 65.5781 255.34 65.6562 257.762ZM54.7773 249.285C53.2539 249.285 51.9193 249.799 50.7734 250.828C49.6276 251.844 48.8919 253.191 48.5664 254.871H61.418C61.0404 253.191 60.2396 251.844 59.0156 250.828C57.7917 249.799 56.3789 249.285 54.7773 249.285ZM75.5 250.086L79.2109 254.129L82.668 250.086H80.5781V246.473H90.2656V250.086H86.8672L81.457 256.238L87.9805 263.406H90.2656V267H80.5781V263.406H83.2148L79.1328 258.758L75.1094 263.406H77.7461V267H67.8242V263.406H70.8125L76.9844 256.473L71.1445 250.086H68.332V246.473H77.9805V250.086H75.5ZM102.688 246.473V250.086H98.9375V260.848C98.9375 261.967 99.0547 262.697 99.2891 263.035C99.5365 263.361 99.9531 263.523 100.539 263.523C101.255 263.523 101.971 263.4 102.688 263.152V266.805C101.438 267.169 100.428 267.352 99.6602 267.352C97.9674 267.352 96.75 266.928 96.0078 266.082C95.2656 265.223 94.8945 263.758 94.8945 261.688V250.086H92.2188V246.473H94.8945V243.367L98.9375 239.676V246.473H102.688Z" fill="#EDEBD7"/>
<rect x="14" y="155" width="605" height="5" rx="2.5" fill="#EDEBD7"/>
<path d="M32 508.511L46.6405 493.42L64.4465 497.391L79.4826 506.923L103.62 497.391H117.073L138.44 518.043H158.62L172.074 502.554L187.506 497.391L201.75 478.328H215.599L233.405 497.391H250.816L278.118 524L319.27 518.043L340.241 506.923L368.335 489.845L382.184 478.328L396.429 465.222L415.026 457.676L437.185 435.436H459.739L503.265 396.912L549.165 381.026L601 329" stroke="#EDEBD7" stroke-width="10"/>
</svg>
