<svg width="633" height="600" viewBox="0 0 633 600" fill="none" xmlns="http://www.w3.org/2000/svg">
<rect width="633" height="600" fill="#F2F4CB"/>
<path d="M32.592 124V87.648H18.256V79.2H57.296V87.648H42.96V124H32.592ZM75.7585 124.512C71.8332 124.512 68.3772 123.744 65.3905 122.208C62.4465 120.672 60.1638 118.581 58.5425 115.936C56.9212 113.248 56.1105 110.197 56.1105 106.784C56.1105 103.328 56.8998 100.277 58.4785 97.632C60.0998 94.944 62.2972 92.8533 65.0705 91.36C67.8438 89.824 70.9798 89.056 74.4785 89.056C77.8492 89.056 80.8785 89.7813 83.5665 91.232C86.2972 92.64 88.4518 94.688 90.0305 97.376C91.6092 100.021 92.3985 103.2 92.3985 106.912C92.3985 107.296 92.3772 107.744 92.3345 108.256C92.2918 108.725 92.2492 109.173 92.2065 109.6H64.2385V103.776H86.9585L83.1185 105.504C83.1185 103.712 82.7558 102.155 82.0305 100.832C81.3052 99.5093 80.3025 98.4853 79.0225 97.76C77.7425 96.992 76.2492 96.608 74.5425 96.608C72.8358 96.608 71.3212 96.992 69.9985 97.76C68.7185 98.4853 67.7158 99.5307 66.9905 100.896C66.2652 102.219 65.9025 103.797 65.9025 105.632V107.168C65.9025 109.045 66.3078 110.709 67.1185 112.16C67.9718 113.568 69.1452 114.656 70.6385 115.424C72.1745 116.149 73.9665 116.512 76.0145 116.512C77.8492 116.512 79.4492 116.235 80.8145 115.68C82.2225 115.125 83.5025 114.293 84.6545 113.184L89.9665 118.944C88.3878 120.736 86.4038 122.123 84.0145 123.104C81.6252 124.043 78.8732 124.512 75.7585 124.512ZM93.756 124L109.18 103.776L108.988 109.28L94.204 89.568H105.404L114.748 102.432L110.524 102.56L120.188 89.568H130.812L115.964 109.088V103.712L131.324 124H119.996L110.204 110.304L114.364 110.88L104.636 124H93.756ZM150.251 124.512C146.197 124.512 143.04 123.488 140.779 121.44C138.517 119.349 137.387 116.256 137.387 112.16V81.952H147.371V112.032C147.371 113.483 147.755 114.613 148.523 115.424C149.291 116.192 150.336 116.576 151.659 116.576C153.237 116.576 154.581 116.149 155.691 115.296L158.379 122.336C157.355 123.061 156.117 123.616 154.667 124C153.259 124.341 151.787 124.512 150.251 124.512ZM132.075 98.016V90.336H155.947V98.016H132.075Z" fill="#110B11"/>
<path d="M29.712 213V183.576H18.192V179.4H45.984V183.576H34.464V213H29.712ZM59.2429 213.288C56.5229 213.288 54.1229 212.728 52.0429 211.608C49.9949 210.488 48.3949 208.952 47.2429 207C46.1229 205.048 45.5629 202.808 45.5629 200.28C45.5629 197.752 46.1069 195.512 47.1949 193.56C48.3149 191.608 49.8349 190.088 51.7549 189C53.7069 187.88 55.8989 187.32 58.3309 187.32C60.7949 187.32 62.9709 187.864 64.8589 188.952C66.7469 190.04 68.2189 191.576 69.2749 193.56C70.3629 195.512 70.9069 197.8 70.9069 200.424C70.9069 200.616 70.8909 200.84 70.8589 201.096C70.8589 201.352 70.8429 201.592 70.8109 201.816H49.1629V198.504H68.4109L66.5389 199.656C66.5709 198.024 66.2349 196.568 65.5309 195.288C64.8269 194.008 63.8509 193.016 62.6029 192.312C61.3869 191.576 59.9629 191.208 58.3309 191.208C56.7309 191.208 55.3069 191.576 54.0589 192.312C52.8109 193.016 51.8349 194.024 51.1309 195.336C50.4269 196.616 50.0749 198.088 50.0749 199.752V200.52C50.0749 202.216 50.4589 203.736 51.2269 205.08C52.0269 206.392 53.1309 207.416 54.5389 208.152C55.9469 208.888 57.5629 209.256 59.3869 209.256C60.8909 209.256 62.2509 209 63.4669 208.488C64.7149 207.976 65.8029 207.208 66.7309 206.184L69.2749 209.16C68.1229 210.504 66.6829 211.528 64.9549 212.232C63.2589 212.936 61.3549 213.288 59.2429 213.288ZM72.9064 213L83.8504 198.792L83.8024 201.144L73.3864 187.56H78.5224L86.4904 198.024H84.5224L92.4904 187.56H97.5304L86.9704 201.24L87.0184 198.792L98.0584 213H92.8264L84.4264 201.864L86.2984 202.152L78.0424 213H72.9064ZM111.823 213.288C109.263 213.288 107.279 212.6 105.871 211.224C104.463 209.848 103.759 207.88 103.759 205.32V181.992H108.367V205.128C108.367 206.504 108.703 207.56 109.375 208.296C110.079 209.032 111.071 209.4 112.351 209.4C113.791 209.4 114.991 209 115.951 208.2L117.391 211.512C116.687 212.12 115.839 212.568 114.847 212.856C113.887 213.144 112.879 213.288 111.823 213.288ZM99.4388 191.352V187.56H115.663V191.352H99.4388Z" fill="#110B11"/>
<path d="M27.76 275V250.48H18.16V247H41.32V250.48H31.72V275H27.76ZM52.3691 275.24C50.1024 275.24 48.1024 274.773 46.3691 273.84C44.6624 272.907 43.3291 271.627 42.3691 270C41.4357 268.373 40.9691 266.507 40.9691 264.4C40.9691 262.293 41.4224 260.427 42.3291 258.8C43.2624 257.173 44.5291 255.907 46.1291 255C47.7557 254.067 49.5824 253.6 51.6091 253.6C53.6624 253.6 55.4757 254.053 57.0491 254.96C58.6224 255.867 59.8491 257.147 60.7291 258.8C61.6357 260.427 62.0891 262.333 62.0891 264.52C62.0891 264.68 62.0757 264.867 62.0491 265.08C62.0491 265.293 62.0357 265.493 62.0091 265.68H43.9691V262.92H60.0091L58.4491 263.88C58.4757 262.52 58.1957 261.307 57.6091 260.24C57.0224 259.173 56.2091 258.347 55.1691 257.76C54.1557 257.147 52.9691 256.84 51.6091 256.84C50.2757 256.84 49.0891 257.147 48.0491 257.76C47.0091 258.347 46.1957 259.187 45.6091 260.28C45.0224 261.347 44.7291 262.573 44.7291 263.96V264.6C44.7291 266.013 45.0491 267.28 45.6891 268.4C46.3557 269.493 47.2757 270.347 48.4491 270.96C49.6224 271.573 50.9691 271.88 52.4891 271.88C53.7424 271.88 54.8757 271.667 55.8891 271.24C56.9291 270.813 57.8357 270.173 58.6091 269.32L60.7291 271.8C59.7691 272.92 58.5691 273.773 57.1291 274.36C55.7157 274.947 54.1291 275.24 52.3691 275.24ZM63.7553 275L72.8753 263.16L72.8353 265.12L64.1553 253.8H68.4353L75.0753 262.52H73.4353L80.0753 253.8H84.2753L75.4753 265.2L75.5153 263.16L84.7153 275H80.3553L73.3553 265.72L74.9153 265.96L68.0353 275H63.7553ZM96.1856 275.24C94.0523 275.24 92.399 274.667 91.2256 273.52C90.0523 272.373 89.4656 270.733 89.4656 268.6V249.16H93.3056V268.44C93.3056 269.587 93.5856 270.467 94.1456 271.08C94.7323 271.693 95.559 272 96.6256 272C97.8256 272 98.8256 271.667 99.6256 271L100.826 273.76C100.239 274.267 99.5323 274.64 98.7056 274.88C97.9056 275.12 97.0656 275.24 96.1856 275.24ZM85.8656 256.96V253.8H99.3856V256.96H85.8656Z" fill="#110B11"/>
<rect x="14" y="155" width="605" height="5" rx="2.5" fill="#110B11"/>
<path d="M32 508.511L46.6405 493.42L64.4465 497.391L79.4826 506.923L103.62 497.391H117.073L138.44 518.043H158.62L172.074 502.554L187.506 497.391L201.75 478.328H215.599L233.405 497.391H250.816L278.118 524L319.27 518.043L340.241 506.923L368.335 489.845L382.184 478.328L396.429 465.222L415.026 457.676L437.185 435.436H459.739L503.265 396.912L549.165 381.026L601 329" stroke="#110B11" stroke-width="10"/>
</svg>
