<svg width="641" height="608" viewBox="0 0 641 608" fill="none" xmlns="http://www.w3.org/2000/svg">
<rect x="2" y="2" width="637" height="604" rx="99" fill="#EDEBD7" stroke="white" stroke-width="4"/>
<path d="M58.875 87.8438V76.9062H51.5625V108H58.5938V116H32.1875V108H39.3438V76.9062H32.1875V87.8438H24.1875V68.9062H66.8125V87.8438H58.875ZM102.062 101.781H77.5625C77.8125 104.302 78.6771 106.302 80.1562 107.781C81.6562 109.24 83.5833 109.969 85.9375 109.969C88.5417 109.969 91.0833 108.677 93.5625 106.094L101.688 108.719C99.8958 111.406 97.6771 113.427 95.0312 114.781C92.3854 116.115 89.25 116.781 85.625 116.781C82 116.781 78.7917 116.104 76 114.75C73.2292 113.375 71.0729 111.438 69.5312 108.938C68.0104 106.438 67.25 103.5 67.25 100.125C67.25 96.7917 68.0417 93.7708 69.625 91.0625C71.2292 88.3542 73.3854 86.2396 76.0938 84.7188C78.8229 83.1771 81.7812 82.4062 84.9688 82.4062C88.4271 82.4062 91.4375 83.2083 94 84.8125C96.5625 86.3958 98.5312 88.6562 99.9062 91.5938C101.302 94.5104 102.021 97.9062 102.062 101.781ZM84.4688 89.375C82.5938 89.375 81.0833 89.9167 79.9375 91C78.8125 92.0833 78.1042 93.7396 77.8125 95.9688H91.5C91.2083 94.0104 90.4062 92.4271 89.0938 91.2188C87.8021 89.9896 86.2604 89.375 84.4688 89.375ZM129.031 83.1562H138.969V90.8438H134.562L127.969 98.6562L135.625 108.438H140.125V116H127.5L121.188 106.781L114.312 116H104.094V108.438H108.875L116 100L108.875 90.8438H104.094V83.1562H116.75L122.656 92.1875L129.031 83.1562ZM163.969 83.1562V90.8438H157.906V105.188C157.906 106.208 158.104 106.979 158.5 107.5C158.896 108 159.635 108.25 160.719 108.25C161.615 108.25 162.698 108.021 163.969 107.562V114.844C161.156 115.948 158.51 116.5 156.031 116.5C153.177 116.5 151.031 115.781 149.594 114.344C148.177 112.885 147.469 110.833 147.469 108.188V90.8438H143.312V83.1562H147.469V78.0625L157.906 70.5625V83.1562H163.969Z" fill="#6E675F"/>
<path d="M47.8281 185.594V177.086H40.5391V203.594H45.1328V208H30.6953V203.594H35.1953V177.086H27.9531V185.594H23.5938V172.68H52.1875V185.594H47.8281ZM79.1875 196.914H58.5391C58.8359 199.273 59.75 201.141 61.2812 202.516C62.8125 203.875 64.6875 204.555 66.9062 204.555C68.5312 204.555 70.0391 204.219 71.4297 203.547C72.8203 202.875 73.9844 201.844 74.9219 200.453L79.1875 202.375C77.8438 204.469 76.0781 206.055 73.8906 207.133C71.7188 208.195 69.3516 208.727 66.7891 208.727C64.1328 208.727 61.7734 208.172 59.7109 207.062C57.6484 205.953 56.0391 204.406 54.8828 202.422C53.7422 200.438 53.1719 198.203 53.1719 195.719C53.1719 193.25 53.7344 191.023 54.8594 189.039C56 187.055 57.5547 185.508 59.5234 184.398C61.4922 183.273 63.6641 182.711 66.0391 182.711C68.6328 182.711 70.8906 183.289 72.8125 184.445C74.75 185.586 76.2734 187.227 77.3828 189.367C78.4922 191.492 79.0938 194.008 79.1875 196.914ZM66.1328 186.742C64.3047 186.742 62.7031 187.359 61.3281 188.594C59.9531 189.812 59.0703 191.43 58.6797 193.445H74.1016C73.6484 191.43 72.6875 189.812 71.2188 188.594C69.75 187.359 68.0547 186.742 66.1328 186.742ZM91 187.703L95.4531 192.555L99.6016 187.703H97.0938V183.367H108.719V187.703H104.641L98.1484 195.086L105.977 203.688H108.719V208H97.0938V203.688H100.258L95.3594 198.109L90.5312 203.688H93.6953V208H81.7891V203.688H85.375L92.7812 195.367L85.7734 187.703H82.3984V183.367H93.9766V187.703H91ZM123.625 183.367V187.703H119.125V200.617C119.125 201.961 119.266 202.836 119.547 203.242C119.844 203.633 120.344 203.828 121.047 203.828C121.906 203.828 122.766 203.68 123.625 203.383V207.766C122.125 208.203 120.914 208.422 119.992 208.422C117.961 208.422 116.5 207.914 115.609 206.898C114.719 205.867 114.273 204.109 114.273 201.625V187.703H111.062V183.367H114.273V179.641L119.125 175.211V183.367H123.625Z" fill="#6E675F"/>
<path d="M43.5234 252.328V245.238H37.4492V267.328H41.2773V271H29.2461V267.328H32.9961V245.238H26.9609V252.328H23.3281V241.566H47.1562V252.328H43.5234ZM69.6562 261.762H52.4492C52.6966 263.728 53.4583 265.284 54.7344 266.43C56.0104 267.562 57.5729 268.129 59.4219 268.129C60.776 268.129 62.0326 267.849 63.1914 267.289C64.3503 266.729 65.3203 265.87 66.1016 264.711L69.6562 266.312C68.5365 268.057 67.0651 269.379 65.2422 270.277C63.4323 271.163 61.4596 271.605 59.3242 271.605C57.1107 271.605 55.1445 271.143 53.4258 270.219C51.707 269.294 50.3659 268.005 49.4023 266.352C48.4518 264.698 47.9766 262.836 47.9766 260.766C47.9766 258.708 48.4453 256.853 49.3828 255.199C50.3333 253.546 51.6289 252.257 53.2695 251.332C54.9102 250.395 56.7201 249.926 58.6992 249.926C60.8607 249.926 62.7422 250.408 64.3438 251.371C65.9583 252.322 67.2279 253.689 68.1523 255.473C69.0768 257.243 69.5781 259.34 69.6562 261.762ZM58.7773 253.285C57.2539 253.285 55.9193 253.799 54.7734 254.828C53.6276 255.844 52.8919 257.191 52.5664 258.871H65.418C65.0404 257.191 64.2396 255.844 63.0156 254.828C61.7917 253.799 60.3789 253.285 58.7773 253.285ZM79.5 254.086L83.2109 258.129L86.668 254.086H84.5781V250.473H94.2656V254.086H90.8672L85.457 260.238L91.9805 267.406H94.2656V271H84.5781V267.406H87.2148L83.1328 262.758L79.1094 267.406H81.7461V271H71.8242V267.406H74.8125L80.9844 260.473L75.1445 254.086H72.332V250.473H81.9805V254.086H79.5ZM106.688 250.473V254.086H102.938V264.848C102.938 265.967 103.055 266.697 103.289 267.035C103.536 267.361 103.953 267.523 104.539 267.523C105.255 267.523 105.971 267.4 106.688 267.152V270.805C105.438 271.169 104.428 271.352 103.66 271.352C101.967 271.352 100.75 270.928 100.008 270.082C99.2656 269.223 98.8945 267.758 98.8945 265.688V254.086H96.2188V250.473H98.8945V247.367L102.938 243.676V250.473H106.688Z" fill="#6E675F"/>
<rect x="18" y="159" width="605" height="5" rx="2.5" fill="#6E675F"/>
<path d="M36 512.511L50.6405 497.42L68.4465 501.391L83.4826 510.923L107.62 501.391H121.073L142.44 522.043H162.62L176.074 506.554L191.506 501.391L205.75 482.328H219.599L237.405 501.391H254.816L282.118 528L323.27 522.043L344.241 510.923L372.335 493.845L386.184 482.328L400.429 469.222L419.026 461.676L441.185 439.436H463.739L507.265 400.912L553.165 385.026L605 333" stroke="#6E675F" stroke-width="10"/>
</svg>
